<mxfile host="app.diagrams.net" modified="2020-12-01T14:13:10.597Z" agent="5.0 (Macintosh; Intel Mac OS X 11_0_1) AppleWebKit/537.36 (KHTML, like Gecko) Chrome/88.0.4324.11 Safari/537.36" etag="ZaHFT-ZfGeC6ybVN2I8U" version="13.10.4" type="github">
  <diagram id="2uksuskUjcyCOV56l4W4" name="Page-1">
    <mxGraphModel dx="1021" dy="643" grid="1" gridSize="10" guides="1" tooltips="1" connect="1" arrows="1" fold="1" page="1" pageScale="1" pageWidth="827" pageHeight="1169" math="0" shadow="0">
      <root>
        <mxCell id="0" />
        <mxCell id="1" parent="0" />
        <mxCell id="XnlGGl6RaYM0I0zMV1Qg-10" value="" style="edgeStyle=orthogonalEdgeStyle;rounded=0;orthogonalLoop=1;jettySize=auto;html=1;entryX=-0.031;entryY=0.283;entryDx=0;entryDy=0;entryPerimeter=0;exitX=1;exitY=0.3;exitDx=0;exitDy=0;" parent="1" source="XnlGGl6RaYM0I0zMV1Qg-8" target="XnlGGl6RaYM0I0zMV1Qg-9" edge="1">
          <mxGeometry relative="1" as="geometry">
            <mxPoint x="175" y="860" as="sourcePoint" />
            <mxPoint x="335" y="860" as="targetPoint" />
          </mxGeometry>
        </mxCell>
        <mxCell id="XnlGGl6RaYM0I0zMV1Qg-11" value="1. 读取原始数据" style="edgeLabel;html=1;align=center;verticalAlign=middle;resizable=0;points=[];" parent="XnlGGl6RaYM0I0zMV1Qg-10" vertex="1" connectable="0">
          <mxGeometry x="0.1786" y="2" relative="1" as="geometry">
            <mxPoint as="offset" />
          </mxGeometry>
        </mxCell>
        <mxCell id="XnlGGl6RaYM0I0zMV1Qg-15" value="" style="edgeStyle=orthogonalEdgeStyle;rounded=0;orthogonalLoop=1;jettySize=auto;html=1;" parent="1" source="XnlGGl6RaYM0I0zMV1Qg-8" target="XnlGGl6RaYM0I0zMV1Qg-14" edge="1">
          <mxGeometry relative="1" as="geometry" />
        </mxCell>
        <mxCell id="XnlGGl6RaYM0I0zMV1Qg-16" value="3. 读取预处理好的数据" style="edgeLabel;html=1;align=center;verticalAlign=middle;resizable=0;points=[];" parent="XnlGGl6RaYM0I0zMV1Qg-15" vertex="1" connectable="0">
          <mxGeometry x="-0.3455" y="-3" relative="1" as="geometry">
            <mxPoint as="offset" />
          </mxGeometry>
        </mxCell>
        <mxCell id="XnlGGl6RaYM0I0zMV1Qg-8" value="hive 数据仓库" style="shape=datastore;whiteSpace=wrap;html=1;fillColor=#f0a30a;strokeColor=#BD7000;fontColor=#ffffff;" parent="1" vertex="1">
          <mxGeometry x="115" y="840" width="50" height="70" as="geometry" />
        </mxCell>
        <mxCell id="XnlGGl6RaYM0I0zMV1Qg-12" style="edgeStyle=orthogonalEdgeStyle;rounded=0;orthogonalLoop=1;jettySize=auto;html=1;entryX=1;entryY=0.7;entryDx=0;entryDy=0;exitX=0;exitY=0.75;exitDx=0;exitDy=0;" parent="1" source="XnlGGl6RaYM0I0zMV1Qg-9" target="XnlGGl6RaYM0I0zMV1Qg-8" edge="1">
          <mxGeometry relative="1" as="geometry" />
        </mxCell>
        <mxCell id="XnlGGl6RaYM0I0zMV1Qg-13" value="2. 将整理好的数据保存到一个新的表里" style="edgeLabel;html=1;align=center;verticalAlign=middle;resizable=0;points=[];" parent="XnlGGl6RaYM0I0zMV1Qg-12" vertex="1" connectable="0">
          <mxGeometry x="0.0129" relative="1" as="geometry">
            <mxPoint as="offset" />
          </mxGeometry>
        </mxCell>
        <mxCell id="XnlGGl6RaYM0I0zMV1Qg-9" value="数据聚合处理引擎" style="shape=process;whiteSpace=wrap;html=1;backgroundOutline=1;fillColor=#b1ddf0;strokeColor=#10739e;" parent="1" vertex="1">
          <mxGeometry x="425" y="845" width="120" height="60" as="geometry" />
        </mxCell>
        <mxCell id="XnlGGl6RaYM0I0zMV1Qg-18" style="edgeStyle=orthogonalEdgeStyle;rounded=0;orthogonalLoop=1;jettySize=auto;html=1;" parent="1" source="XnlGGl6RaYM0I0zMV1Qg-14" target="XnlGGl6RaYM0I0zMV1Qg-17" edge="1">
          <mxGeometry relative="1" as="geometry">
            <mxPoint x="375" y="1050" as="targetPoint" />
          </mxGeometry>
        </mxCell>
        <mxCell id="XnlGGl6RaYM0I0zMV1Qg-20" value="4. 导出预测完的数据，并成生模型报告" style="edgeLabel;html=1;align=center;verticalAlign=middle;resizable=0;points=[];" parent="XnlGGl6RaYM0I0zMV1Qg-18" vertex="1" connectable="0">
          <mxGeometry x="-0.2" y="1" relative="1" as="geometry">
            <mxPoint x="26" as="offset" />
          </mxGeometry>
        </mxCell>
        <mxCell id="XnlGGl6RaYM0I0zMV1Qg-14" value="模型训练引擎" style="shape=process;whiteSpace=wrap;html=1;backgroundOutline=1;fillColor=#d0cee2;strokeColor=#56517e;" parent="1" vertex="1">
          <mxGeometry x="80" y="1020" width="120" height="60" as="geometry" />
        </mxCell>
        <mxCell id="XnlGGl6RaYM0I0zMV1Qg-17" value="磁盘" style="pointerEvents=1;shadow=0;dashed=0;html=1;strokeColor=#0e8088;fillColor=#b0e3e6;labelPosition=center;verticalLabelPosition=bottom;verticalAlign=top;outlineConnect=0;align=center;shape=mxgraph.office.devices.hard_disk;" parent="1" vertex="1">
          <mxGeometry x="445" y="1006.5" width="64.44" height="87" as="geometry" />
        </mxCell>
        <mxCell id="WyOAqSTFjCjV2PNZ89e4-14" style="edgeStyle=orthogonalEdgeStyle;curved=1;rounded=0;orthogonalLoop=1;jettySize=auto;html=1;startArrow=none;startFill=0;endArrow=block;endFill=1;" edge="1" parent="1" source="3dHuF4zZTyBza_CA0FRg-1" target="3dHuF4zZTyBza_CA0FRg-5">
          <mxGeometry relative="1" as="geometry" />
        </mxCell>
        <mxCell id="WyOAqSTFjCjV2PNZ89e4-15" value="创建任务事件" style="edgeLabel;html=1;align=center;verticalAlign=middle;resizable=0;points=[];" vertex="1" connectable="0" parent="WyOAqSTFjCjV2PNZ89e4-14">
          <mxGeometry x="-0.4648" y="-14" relative="1" as="geometry">
            <mxPoint y="1" as="offset" />
          </mxGeometry>
        </mxCell>
        <mxCell id="3dHuF4zZTyBza_CA0FRg-1" value="系统 actor" style="ellipse;whiteSpace=wrap;html=1;aspect=fixed;fillColor=#e51400;strokeColor=#B20000;fontColor=#ffffff;" parent="1" vertex="1">
          <mxGeometry x="140" y="110" width="80" height="80" as="geometry" />
        </mxCell>
        <mxCell id="WyOAqSTFjCjV2PNZ89e4-5" style="edgeStyle=orthogonalEdgeStyle;curved=1;rounded=0;orthogonalLoop=1;jettySize=auto;html=1;entryX=-0.013;entryY=0.66;entryDx=0;entryDy=0;entryPerimeter=0;startArrow=none;startFill=0;endArrow=block;endFill=1;" edge="1" parent="1" source="3dHuF4zZTyBza_CA0FRg-2" target="3dHuF4zZTyBza_CA0FRg-5">
          <mxGeometry relative="1" as="geometry" />
        </mxCell>
        <mxCell id="3dHuF4zZTyBza_CA0FRg-2" value="任务初始化 actor" style="ellipse;whiteSpace=wrap;html=1;aspect=fixed;fillColor=#f0a30a;strokeColor=#BD7000;fontColor=#ffffff;" parent="1" vertex="1">
          <mxGeometry x="100" y="450" width="80" height="80" as="geometry" />
        </mxCell>
        <mxCell id="WyOAqSTFjCjV2PNZ89e4-9" style="edgeStyle=orthogonalEdgeStyle;curved=1;rounded=0;orthogonalLoop=1;jettySize=auto;html=1;entryX=0.977;entryY=0.785;entryDx=0;entryDy=0;entryPerimeter=0;startArrow=none;startFill=0;endArrow=block;endFill=1;exitX=1.019;exitY=0.358;exitDx=0;exitDy=0;exitPerimeter=0;" edge="1" parent="1" source="3dHuF4zZTyBza_CA0FRg-3" target="3dHuF4zZTyBza_CA0FRg-5">
          <mxGeometry relative="1" as="geometry">
            <Array as="points">
              <mxPoint x="390" y="499" />
              <mxPoint x="390" y="313" />
            </Array>
          </mxGeometry>
        </mxCell>
        <mxCell id="WyOAqSTFjCjV2PNZ89e4-10" value="处理完成信号" style="edgeLabel;html=1;align=center;verticalAlign=middle;resizable=0;points=[];" vertex="1" connectable="0" parent="WyOAqSTFjCjV2PNZ89e4-9">
          <mxGeometry x="-0.0286" y="3" relative="1" as="geometry">
            <mxPoint as="offset" />
          </mxGeometry>
        </mxCell>
        <mxCell id="3dHuF4zZTyBza_CA0FRg-3" value="数据处理 actor" style="ellipse;whiteSpace=wrap;html=1;aspect=fixed;fillColor=#cce5ff;strokeColor=#36393d;" parent="1" vertex="1">
          <mxGeometry x="280" y="470" width="80" height="80" as="geometry" />
        </mxCell>
        <mxCell id="3dHuF4zZTyBza_CA0FRg-17" style="edgeStyle=orthogonalEdgeStyle;curved=1;rounded=0;orthogonalLoop=1;jettySize=auto;html=1;entryX=0.967;entryY=0.254;entryDx=0;entryDy=0;startArrow=none;startFill=0;endArrow=block;endFill=1;exitX=0.5;exitY=0;exitDx=0;exitDy=0;entryPerimeter=0;" parent="1" source="3dHuF4zZTyBza_CA0FRg-4" target="3dHuF4zZTyBza_CA0FRg-5" edge="1">
          <mxGeometry relative="1" as="geometry" />
        </mxCell>
        <mxCell id="3dHuF4zZTyBza_CA0FRg-18" value="任务完成信号" style="edgeLabel;html=1;align=center;verticalAlign=middle;resizable=0;points=[];" parent="3dHuF4zZTyBza_CA0FRg-17" vertex="1" connectable="0">
          <mxGeometry x="-0.0765" y="-10" relative="1" as="geometry">
            <mxPoint x="-6.61" y="9.67" as="offset" />
          </mxGeometry>
        </mxCell>
        <mxCell id="WyOAqSTFjCjV2PNZ89e4-11" style="edgeStyle=orthogonalEdgeStyle;curved=1;rounded=0;orthogonalLoop=1;jettySize=auto;html=1;entryX=1;entryY=0.5;entryDx=0;entryDy=0;startArrow=block;startFill=1;endArrow=none;endFill=0;" edge="1" parent="1" source="3dHuF4zZTyBza_CA0FRg-4" target="3dHuF4zZTyBza_CA0FRg-5">
          <mxGeometry relative="1" as="geometry" />
        </mxCell>
        <mxCell id="3dHuF4zZTyBza_CA0FRg-4" value="模型训练 actor" style="ellipse;whiteSpace=wrap;html=1;aspect=fixed;fillColor=#cdeb8b;strokeColor=#36393d;" parent="1" vertex="1">
          <mxGeometry x="530" y="310" width="80" height="80" as="geometry" />
        </mxCell>
        <mxCell id="WyOAqSTFjCjV2PNZ89e4-1" style="edgeStyle=orthogonalEdgeStyle;rounded=0;orthogonalLoop=1;jettySize=auto;html=1;entryX=0.3;entryY=0.046;entryDx=0;entryDy=0;entryPerimeter=0;curved=1;" edge="1" parent="1" source="3dHuF4zZTyBza_CA0FRg-5" target="3dHuF4zZTyBza_CA0FRg-3">
          <mxGeometry relative="1" as="geometry" />
        </mxCell>
        <mxCell id="WyOAqSTFjCjV2PNZ89e4-2" value="数据处理指令" style="edgeLabel;html=1;align=center;verticalAlign=middle;resizable=0;points=[];" vertex="1" connectable="0" parent="WyOAqSTFjCjV2PNZ89e4-1">
          <mxGeometry x="0.1552" y="2" relative="1" as="geometry">
            <mxPoint as="offset" />
          </mxGeometry>
        </mxCell>
        <mxCell id="WyOAqSTFjCjV2PNZ89e4-3" style="edgeStyle=orthogonalEdgeStyle;curved=1;rounded=0;orthogonalLoop=1;jettySize=auto;html=1;entryX=0.5;entryY=0;entryDx=0;entryDy=0;startArrow=none;startFill=0;endArrow=block;endFill=1;" edge="1" parent="1" source="3dHuF4zZTyBza_CA0FRg-5" target="3dHuF4zZTyBza_CA0FRg-2">
          <mxGeometry relative="1" as="geometry" />
        </mxCell>
        <mxCell id="WyOAqSTFjCjV2PNZ89e4-4" value="任务初始化事件" style="edgeLabel;html=1;align=center;verticalAlign=middle;resizable=0;points=[];" vertex="1" connectable="0" parent="WyOAqSTFjCjV2PNZ89e4-3">
          <mxGeometry x="0.3298" y="14" relative="1" as="geometry">
            <mxPoint x="11" y="-15.83" as="offset" />
          </mxGeometry>
        </mxCell>
        <mxCell id="3dHuF4zZTyBza_CA0FRg-5" value="任务管理 actor" style="ellipse;whiteSpace=wrap;html=1;aspect=fixed;fillColor=#fa6800;strokeColor=#C73500;fontColor=#ffffff;" parent="1" vertex="1">
          <mxGeometry x="260" y="250" width="80" height="80" as="geometry" />
        </mxCell>
        <mxCell id="WyOAqSTFjCjV2PNZ89e4-6" value="初始化完成信号" style="text;html=1;align=center;verticalAlign=middle;resizable=0;points=[];autosize=1;" vertex="1" parent="1">
          <mxGeometry x="170" y="380" width="100" height="20" as="geometry" />
        </mxCell>
        <mxCell id="WyOAqSTFjCjV2PNZ89e4-13" value="模型训练指令" style="edgeLabel;html=1;align=center;verticalAlign=middle;resizable=0;points=[];" vertex="1" connectable="0" parent="1">
          <mxGeometry x="450.0039066064434" y="329.99839486588957" as="geometry" />
        </mxCell>
      </root>
    </mxGraphModel>
  </diagram>
</mxfile>
